<svg xmlns="http://www.w3.org/2000/svg" viewBox="0 0 38 29" width="38" height="29">
	<defs>
		<clipPath clipPathUnits="userSpaceOnUse" id="cp1">
			<path d="M-1486 -8324L434 -8324L434 598L-1486 598Z" />
		</clipPath>
	</defs>
	<style>
		tspan { white-space:pre }
		.shp0 { fill: #c4c5cc } 
	</style>
	<g id="Home Page (M-Desktop)" clip-path="url(#cp1)">
		<path id="“" class="shp0" d="M17.22 2.07C16.65 1.95 15.75 1.88 14.54 1.88C13.33 1.88 11.71 2.39 9.67 3.41C7.63 4.43 5.81 6.17 4.22 8.62C2.62 11.08 1.82 14.22 1.82 18.04C1.82 19.38 2.3 21.04 3.26 23.01C4.73 26.26 7.28 27.89 10.91 27.89C12.69 27.89 14.22 27.24 15.5 25.93C16.77 24.62 17.41 22.9 17.41 20.77C17.41 18.63 16.65 16.67 15.12 14.89C13.59 13.1 12.82 11.32 12.82 9.53C12.82 6.54 14.41 4.43 17.6 3.22L17.22 2.07ZM36.44 2.07C35.93 1.95 35.05 1.88 33.81 1.88C32.57 1.88 30.93 2.39 28.89 3.41C26.85 4.43 25.05 6.17 23.48 8.62C21.92 11.08 21.14 14.22 21.14 18.04C21.14 19.38 21.59 21.04 22.48 23.01C23.95 26.26 26.5 27.89 30.13 27.89C31.91 27.89 33.44 27.24 34.72 25.93C35.99 24.62 36.63 22.9 36.63 20.77C36.63 18.63 35.87 16.67 34.34 14.89C32.81 13.1 32.04 11.32 32.04 9.53C32.04 6.54 33.63 4.43 36.82 3.22L36.44 2.07Z" />
	</g>
</svg>